<svg width="512" height="512" xmlns="http://www.w3.org/2000/svg">

 <g>
  <title>background</title>
  <rect fill="none" id="canvas_background" height="402" width="582" y="-1" x="-1"/>
 </g>
 <g>
  <title>Layer 1</title>
  <path fill="#ffffff" id="svg_1" d="m437.5,386.600006l-130.600006,-130.600006l130.600006,-130.600014c14.100006,-14.099998 14.100006,-36.799995 0,-50.899994c-14.100006,-14.100002 -36.799988,-14.100002 -50.899994,0l-130.600006,130.600014l-130.599998,-130.600006c-14.099998,-14.099998 -36.800003,-14.099998 -50.900002,0c-14.099998,14.099998 -14.099998,36.800003 0,50.900002l130.600006,130.599998l-130.600006,130.600006c-14.099998,14.100006 -14.099998,36.800018 0,50.899994c14.099998,14.100006 36.800003,14.100006 50.900002,0l130.599998,-130.600006l130.600006,130.600006c14.100006,14.100006 36.800018,14.100006 50.899994,0c14,-14.100006 14,-36.899994 0,-50.899994z"/>
 </g>
</svg>