<svg width="47.99999999999999" height="47.99999999999999" xmlns="http://www.w3.org/2000/svg">

 <g>
  <title>background</title>
  <rect fill="none" id="canvas_background" height="402" width="582" y="-1" x="-1"/>
 </g>
 <g>
  <title>Layer 1</title>
  <path id="svg_1" fill="#ee720d" d="m23.957001,0c-13.255001,0 -24.000001,10.745 -24.000001,24s10.745,24 24.000001,24s24,-10.744999 24,-24s-10.744999,-24 -24,-24zm0.705999,36.560001c-0.451,0.486 -1.091,0.729 -1.924,0.729c-0.832001,0 -1.471001,-0.237003 -1.916,-0.712002s-0.667999,-1.139999 -0.667999,-1.994999c0,-1.77 0.861,-2.654001 2.584,-2.654001c0.844,0 1.487999,0.231001 1.934,0.694002s0.667999,1.115997 0.667999,1.959999c0,0.832001 -0.226999,1.491001 -0.677999,1.978001zm6.268,-17.157001c-0.257999,0.686001 -0.647999,1.339001 -1.17,1.960001s-1.42,1.429998 -2.697001,2.425999c-1.089998,0.855 -1.82,1.564001 -2.188999,2.127001c-0.312,0.475 -0.483,1.095999 -0.531,1.847c-0.003,0.015999 -0.007999,0.021 -0.011,0.036999c-0.210001,1.183001 -1.584,1.175001 -1.584,1.175001l-0.722,0c0,0 -1.195,-0.188 -1.15,-1.125c0,-1.289 0.233999,-2.361 0.702999,-3.217001s1.290001,-1.74 2.461,-2.653999c1.395,-1.101999 2.292999,-1.957001 2.697001,-2.566s0.606998,-1.336 0.606998,-2.18c0,-0.983999 -0.327999,-1.74 -0.983999,-2.268s-1.6,-0.791 -2.83,-0.791c-1.114,0 -2.145,0.158 -3.094,0.475c-0.518,0.172999 -1.027,0.368999 -1.532,0.58c-0.011002,0.004 -0.015001,0.002 -0.027,0.007c-1.166,0.451 -1.707001,-0.466 -1.707001,-0.466l-0.458,-0.959001c-0.001999,-0.006 -0.515999,-1.177 0.630001,-1.691999c2.042999,-0.934 4.204,-1.406 6.486,-1.406c2.296,0 4.118999,0.563 5.466,1.688s2.021,2.678 2.021,4.658c0.000999,0.877001 -0.128,1.659 -0.385,2.344z"/>
 </g>
</svg>