<svg id="svg" version="1.1" xmlns="http://www.w3.org/2000/svg" xmlns:xlink="http://www.w3.org/1999/xlink" width="400" height="400" viewBox="0, 0, 400,400"><g id="svgg"><path id="path0" d="M234.008 8.610 C 229.961 9.163,226.657 10.360,222.070 12.935 C 206.989 21.402,197.523 23.692,187.437 21.313 C 159.877 14.814,135.632 17.676,121.135 29.139 C 115.615 33.504,111.236 39.803,111.165 43.482 C 111.130 45.285,110.900 45.204,114.540 44.666 C 117.473 44.233,122.915 48.382,128.393 55.228 C 133.685 61.841,134.967 62.688,139.648 62.669 L 142.773 62.655 154.297 56.744 C 170.682 48.338,182.488 43.195,195.313 38.878 C 197.998 37.974,202.828 36.224,206.046 34.989 C 240.699 21.688,262.673 26.713,267.422 49.023 C 267.742 50.527,268.168 55.024,268.368 59.017 C 269.197 75.531,273.828 88.343,283.618 101.204 C 286.296 104.721,290.910 109.670,290.256 108.324 C 286.098 99.755,282.729 86.189,281.448 72.852 C 277.512 31.864,257.926 5.341,234.008 8.610 M316.797 111.368 C 314.326 111.543,309.668 111.958,306.445 112.289 C 303.223 112.621,300.243 112.892,299.823 112.891 C 299.185 112.891,299.293 113.130,300.488 114.355 C 307.182 121.226,299.415 129.665,279.419 137.248 C 245.599 150.074,123.617 171.530,112.843 166.548 C 102.933 161.966,103.053 149.171,113.010 148.738 L 114.844 148.658 114.844 142.255 L 114.844 135.851 110.059 136.105 C 76.555 137.886,55.430 143.047,46.866 151.544 C 38.285 160.057,42.021 167.786,57.031 172.573 C 66.157 175.483,85.660 178.109,98.315 178.131 C 103.167 178.139,103.067 177.914,100.819 183.815 C 95.367 198.124,91.973 216.134,89.819 242.188 C 87.201 273.859,90.848 342.571,97.274 382.617 C 97.481 383.906,97.652 385.096,97.653 385.261 C 97.655 385.427,99.269 383.683,101.240 381.387 C 125.996 352.549,148.351 343.882,164.063 357.032 C 174.989 366.176,183.843 369.357,198.242 369.311 C 211.669 369.268,218.383 367.285,228.800 360.284 C 246.115 348.648,258.605 347.833,273.772 357.348 C 287.472 365.943,303.481 366.415,319.980 358.711 L 323.748 356.951 322.829 354.940 C 317.067 342.337,313.057 299.801,310.176 220.703 C 309.750 208.994,309.297 197.656,309.170 195.508 C 308.502 184.235,305.538 173.599,299.939 162.393 C 298.331 159.174,297.790 157.738,298.137 157.608 C 298.410 157.506,301.270 156.543,304.492 155.467 C 331.518 146.447,348.679 134.919,355.327 121.317 C 357.393 117.090,357.428 116.445,355.671 114.902 C 351.774 111.480,335.750 110.023,316.797 111.368 M286.095 163.350 L 288.611 164.591 273.114 180.377 L 257.617 196.162 257.146 200.853 C 254.710 225.073,245.468 235.604,226.104 236.224 C 205.611 236.880,192.347 222.402,196.076 203.448 L 196.555 201.014 195.250 199.922 C 190.606 196.036,185.043 195.592,180.118 198.715 L 178.400 199.805 178.474 205.664 C 178.688 222.689,172.518 232.917,160.312 235.770 C 156.576 236.644,141.680 236.371,137.891 235.360 C 124.598 231.815,118.148 219.748,120.800 203.384 L 121.360 199.933 115.172 194.476 C 111.769 191.475,108.984 188.924,108.984 188.808 C 108.984 188.691,109.969 187.199,111.171 185.492 L 113.358 182.389 115.650 184.456 C 116.910 185.593,119.605 188.072,121.638 189.964 L 125.335 193.404 126.857 192.444 C 143.320 182.051,161.494 181.560,173.101 191.194 L 175.674 193.329 176.543 192.404 C 180.895 187.771,189.038 187.521,196.147 191.800 L 198.633 193.297 201.367 190.663 C 214.751 177.771,234.827 176.739,252.486 188.035 L 254.751 189.484 262.825 181.683 C 267.265 177.392,273.533 171.233,276.753 167.996 C 283.336 161.376,282.717 161.684,286.095 163.350 " stroke="none" fill="#ff4c4c" fill-rule="evenodd"></path><path id="path1" d="M154.395 17.847 C 154.771 17.946,155.386 17.946,155.762 17.847 C 156.138 17.749,155.830 17.669,155.078 17.669 C 154.326 17.669,154.019 17.749,154.395 17.847 M162.988 17.847 C 163.364 17.946,163.979 17.946,164.355 17.847 C 164.731 17.749,164.424 17.669,163.672 17.669 C 162.920 17.669,162.612 17.749,162.988 17.847 M268.067 56.445 C 268.072 57.305,268.152 57.610,268.245 57.124 C 268.338 56.638,268.335 55.935,268.237 55.562 C 268.139 55.188,268.063 55.586,268.067 56.445 M327.246 110.829 C 327.944 110.916,329.087 110.916,329.785 110.829 C 330.483 110.743,329.912 110.672,328.516 110.672 C 327.119 110.672,326.548 110.743,327.246 110.829 M334.863 110.827 C 335.454 110.916,336.421 110.916,337.012 110.827 C 337.603 110.737,337.119 110.664,335.938 110.664 C 334.756 110.664,334.272 110.737,334.863 110.827 M46.264 151.660 L 45.117 152.930 46.387 151.782 C 47.085 151.151,47.656 150.580,47.656 150.513 C 47.656 150.211,47.334 150.477,46.264 151.660 M277.923 166.895 L 273.633 171.289 278.027 166.999 C 282.109 163.014,282.599 162.500,282.318 162.500 C 282.260 162.500,280.283 164.478,277.923 166.895 M285.341 167.676 L 282.617 170.508 285.449 167.784 C 287.007 166.286,288.281 165.011,288.281 164.952 C 288.281 164.665,287.871 165.045,285.341 167.676 M119.824 167.463 C 120.308 167.556,121.099 167.556,121.582 167.463 C 122.065 167.370,121.670 167.294,120.703 167.294 C 119.736 167.294,119.341 167.370,119.824 167.463 M97.363 178.394 C 97.739 178.493,98.354 178.493,98.730 178.394 C 99.106 178.296,98.799 178.216,98.047 178.216 C 97.295 178.216,96.987 178.296,97.363 178.394 M225.293 180.361 C 225.991 180.447,227.134 180.447,227.832 180.361 C 228.530 180.274,227.959 180.203,226.563 180.203 C 225.166 180.203,224.595 180.274,225.293 180.361 M258.984 194.336 C 258.036 195.303,257.347 196.094,257.455 196.094 C 257.562 196.094,258.426 195.303,259.375 194.336 C 260.324 193.369,261.012 192.578,260.905 192.578 C 260.797 192.578,259.933 193.369,258.984 194.336 M309.474 201.758 C 309.478 202.617,309.558 202.923,309.651 202.437 C 309.745 201.951,309.741 201.248,309.643 200.874 C 309.546 200.501,309.469 200.898,309.474 201.758 M309.864 211.914 C 309.868 212.773,309.948 213.079,310.042 212.593 C 310.135 212.107,310.132 211.404,310.034 211.031 C 309.936 210.657,309.860 211.055,309.864 211.914 M310.255 222.461 C 310.259 223.320,310.339 223.626,310.433 223.140 C 310.526 222.654,310.522 221.951,310.425 221.577 C 310.327 221.204,310.250 221.602,310.255 222.461 M310.645 233.008 C 310.650 233.867,310.730 234.173,310.823 233.687 C 310.917 233.201,310.913 232.498,310.815 232.124 C 310.717 231.751,310.641 232.148,310.645 233.008 M311.036 242.773 C 311.040 243.633,311.120 243.938,311.214 243.452 C 311.307 242.967,311.304 242.263,311.206 241.890 C 311.108 241.517,311.032 241.914,311.036 242.773 M89.153 250.781 C 89.153 251.533,89.234 251.841,89.332 251.465 C 89.430 251.089,89.430 250.474,89.332 250.098 C 89.234 249.722,89.153 250.029,89.153 250.781 M311.419 251.563 C 311.419 252.314,311.499 252.622,311.597 252.246 C 311.696 251.870,311.696 251.255,311.597 250.879 C 311.499 250.503,311.419 250.811,311.419 251.563 M88.803 262.891 C 88.803 264.502,88.872 265.161,88.956 264.355 C 89.041 263.550,89.041 262.231,88.956 261.426 C 88.872 260.620,88.803 261.279,88.803 262.891 M88.800 284.570 C 88.802 286.074,88.872 286.642,88.957 285.831 C 89.042 285.021,89.040 283.790,88.954 283.097 C 88.868 282.403,88.798 283.066,88.800 284.570 M89.153 298.047 C 89.153 298.799,89.234 299.106,89.332 298.730 C 89.430 298.354,89.430 297.739,89.332 297.363 C 89.234 296.987,89.153 297.295,89.153 298.047 M89.544 306.641 C 89.544 307.393,89.624 307.700,89.722 307.324 C 89.821 306.948,89.821 306.333,89.722 305.957 C 89.624 305.581,89.544 305.889,89.544 306.641 M253.619 351.062 C 254.212 351.151,255.091 351.149,255.572 351.056 C 256.052 350.964,255.566 350.890,254.492 350.893 C 253.418 350.896,253.025 350.972,253.619 351.062 M298.535 364.332 C 298.911 364.430,299.526 364.430,299.902 364.332 C 300.278 364.234,299.971 364.153,299.219 364.153 C 298.467 364.153,298.159 364.234,298.535 364.332 M196.387 369.814 C 197.085 369.900,198.228 369.900,198.926 369.814 C 199.624 369.727,199.053 369.656,197.656 369.656 C 196.260 369.656,195.688 369.727,196.387 369.814 " stroke="none" fill="#b2b2b2" fill-rule="evenodd"></path><path id="path2" d="M331.543 110.823 C 332.026 110.916,332.817 110.916,333.301 110.823 C 333.784 110.729,333.389 110.653,332.422 110.653 C 331.455 110.653,331.060 110.729,331.543 110.823 M256.030 188.379 L 254.883 189.648 256.152 188.501 C 256.851 187.870,257.422 187.299,257.422 187.232 C 257.422 186.930,257.100 187.196,256.030 188.379 M262.681 190.723 L 260.742 192.773 262.793 190.835 C 264.699 189.034,265.023 188.672,264.731 188.672 C 264.670 188.672,263.747 189.595,262.681 190.723 M88.763 266.797 C 88.763 267.549,88.843 267.856,88.941 267.480 C 89.039 267.104,89.039 266.489,88.941 266.113 C 88.843 265.737,88.763 266.045,88.763 266.797 " stroke="none" fill="#cccccc" fill-rule="evenodd"></path><path id="path3" d="M152.251 184.261 C 152.737 184.354,153.440 184.351,153.813 184.253 C 154.187 184.155,153.789 184.079,152.930 184.083 C 152.070 184.087,151.765 184.167,152.251 184.261 M88.763 269.141 C 88.763 269.893,88.843 270.200,88.941 269.824 C 89.039 269.448,89.039 268.833,88.941 268.457 C 88.843 268.081,88.763 268.389,88.763 269.141 M88.793 277.930 C 88.795 279.219,88.868 279.699,88.955 278.997 C 89.042 278.295,89.040 277.240,88.951 276.653 C 88.862 276.066,88.791 276.641,88.793 277.930 " stroke="none" fill="#d4d4d4" fill-rule="evenodd"></path><path id="path4" d="M347.245 132.324 L 345.898 133.789 347.363 132.443 C 348.727 131.190,349.008 130.859,348.709 130.859 C 348.644 130.859,347.985 131.519,347.245 132.324 M260.728 183.691 L 258.789 185.742 260.840 183.804 C 262.745 182.003,263.070 181.641,262.778 181.641 C 262.716 181.641,261.794 182.563,260.728 183.691 M268.737 184.668 L 266.602 186.914 268.848 184.779 C 270.083 183.605,271.094 182.594,271.094 182.533 C 271.094 182.243,270.720 182.581,268.737 184.668 M88.803 273.047 C 88.803 274.658,88.872 275.317,88.956 274.512 C 89.041 273.706,89.041 272.388,88.956 271.582 C 88.872 270.776,88.803 271.436,88.803 273.047 M108.774 373.145 L 106.836 375.195 108.887 373.257 C 110.015 372.191,110.938 371.268,110.938 371.206 C 110.938 370.915,110.576 371.239,108.774 373.145 " stroke="none" fill="#dcdcdc" fill-rule="evenodd"></path></g></svg>
